# xmcd CD database file
#
# Track frame offsets:
#	150
#	10297
#	21062
#	35045
#	46960
#	58212
#	70822
#	83655
#	96270
#	108540
#	118812
#	127895
#
# Disc length: 1827 seconds
#
# Revision: 3
# Processed by: cddbd v1.5.1PL0 Copyright (c) Steve Scherf et al.
# Submitted via: CDex 1.51
#
DISCID=a007210c
DTITLE=Sarah Vaughan - ラヴァーズ・コンチェルト〜Pop Artistry of Sarah Vaughan〜
DYEAR=2005
DGENRE=Jazz
TTITLE0=イエスタデイ
TTITLE1=アイ・ノウ・ア・プレイス
TTITLE2=イフ・アイ・ルールド・ザ・ワールド
TTITLE3=メイク・イット・イージー・オン・ユアセルフ
TTITLE4=ヒー・タッチド・ミー
TTITLE5=ハビビ
TTITLE6=ホワット・ザ・ワールド・ニーズ・ナウ・イズ・ラヴ
TTITLE7=ラヴァーズ・コンチェルト
TTITLE8=リトル・ハンズ
TTITLE9=オン・ア・クリア・デイ
TTITLE10=ファースト・シング・エヴリー・モーニング
TTITLE11=ワルツ・フォー・デビー
EXTD=YEAR: 2005
EXTT0=
EXTT1=
EXTT2=
EXTT3=
EXTT4=
EXTT5=
EXTT6=
EXTT7=
EXTT8=
EXTT9=
EXTT10=
EXTT11=
PLAYORDER=
